<?xml version="1.0" encoding="UTF-8"?>
<svg version="1.1" xmlns="http://www.w3.org/2000/svg" width="64" height="64">
<path d="M0 0 C21.12 0 42.24 0 64 0 C64 21.12 64 42.24 64 64 C42.88 64 21.76 64 0 64 C0 42.88 0 21.76 0 0 Z " fill="#A79F8F" transform="translate(0,0)"/>
<path d="M0 0 C0.66 0 1.32 0 2 0 C2 19.14 2 38.28 2 58 C-16.81 58 -35.62 58 -55 58 C-59.28772478 47.99530884 -59.28772478 47.99530884 -58 42 C-56.45297212 39.05954984 -54.68974146 36.95458436 -52 35 C-48.125 34.0625 -48.125 34.0625 -45 34 C-45.99 34.495 -45.99 34.495 -47 35 C-47 35.66 -47 36.32 -47 37 C-44.36 37.33 -41.72 37.66 -39 38 C-39 38.99 -39 39.98 -39 41 C-38.34 41 -37.68 41 -37 41 C-35.7109375 42.53125 -35.7109375 42.53125 -34.375 44.5 C-33.92898437 45.1496875 -33.48296875 45.799375 -33.0234375 46.46875 C-32.68570313 46.9740625 -32.34796875 47.479375 -32 48 C-27.60446288 46.37834553 -23.96301978 44.78342883 -21.625 40.5625 C-19.64214808 35.91546379 -19.03297038 31.03299317 -18.39453125 26.05078125 C-18 23 -18 23 -17.38671875 20.66796875 C-16.81268501 16.7077158 -17.44179419 12.94179181 -18 9 C-17.49025635 8.76289307 -16.9805127 8.52578613 -16.45532227 8.28149414 C-14.15665983 7.21074407 -11.85956706 6.13666805 -9.5625 5.0625 C-8.76005859 4.68931641 -7.95761719 4.31613281 -7.13085938 3.93164062 C-6.36708984 3.57392578 -5.60332031 3.21621094 -4.81640625 2.84765625 C-4.10943604 2.51773682 -3.40246582 2.18781738 -2.67407227 1.84790039 C-1.0108841 1.11465443 -1.0108841 1.11465443 0 0 Z " fill="#F9F9FB" transform="translate(62,6)"/>
<path d="M0 0 C4.30828871 2.31984777 7.16302763 4.40756907 9 9 C9.64138473 14.49758339 8.86862979 18.8093617 7 24 C6.71616072 25.81050883 6.44667203 27.62329582 6.1875 29.4375 C5.27871369 34.57563796 3.92032142 38.43514814 0 42 C-2.32248072 43.3443405 -4.43247962 44.14415987 -7 45 C-12.40461639 39.36800493 -14.03653733 33.98198384 -15.359375 26.3671875 C-15.91803641 22.995164 -15.91803641 22.995164 -17.08203125 19.8515625 C-18.4312215 15.66046086 -18.17131616 12.21673817 -17 8 C-13.06019942 0.97224761 -7.81911735 -2.05766246 0 0 Z " fill="#9D654C" transform="translate(37,10)"/>
<path d="M0 0 C0.66 0 1.32 0 2 0 C2 12.21 2 24.42 2 37 C-1.63 36.01 -5.26 35.02 -9 34 C-11.9922974 33.60343047 -14.99162743 33.24658792 -18 33 C-19.2729713 28.92649183 -18.61620288 26.10785491 -17.484375 22.0546875 C-16.42546519 17.5628604 -16.80636266 13.39258541 -18 9 C-17.49025635 8.76289307 -16.9805127 8.52578613 -16.45532227 8.28149414 C-14.15665983 7.21074407 -11.85956706 6.13666805 -9.5625 5.0625 C-8.76005859 4.68931641 -7.95761719 4.31613281 -7.13085938 3.93164062 C-6.36708984 3.57392578 -5.60332031 3.21621094 -4.81640625 2.84765625 C-4.10943604 2.51773682 -3.40246582 2.18781738 -2.67407227 1.84790039 C-1.0108841 1.11465443 -1.0108841 1.11465443 0 0 Z " fill="#ECEBDC" transform="translate(62,6)"/>
<path d="M0 0 C0.66 0.66 1.32 1.32 2 2 C-0.31 2.33 -2.62 2.66 -5 3 C-5.99 5.64 -6.98 8.28 -8 11 C-7.01 11.99 -6.02 12.98 -5 14 C-5 14.99 -5 15.98 -5 17 C-5.66 17 -6.32 17 -7 17 C-7.66 16.34 -8.32 15.68 -9 15 C-8.67 16.32 -8.34 17.64 -8 19 C-9.98 18.67 -11.96 18.34 -14 18 C-13.01 19.98 -12.02 21.96 -11 24 C-10.01 24 -9.02 24 -8 24 C-8 23.34 -8 22.68 -8 22 C-7.01 22 -6.02 22 -5 22 C-4.875 27.75 -4.875 27.75 -6 30 C-5.01 30.33 -4.02 30.66 -3 31 C-4.32 31 -5.64 31 -7 31 C-7 31.66 -7 32.32 -7 33 C-4.69 33 -2.38 33 0 33 C0.33 32.01 0.66 31.02 1 30 C3.0625 29.3125 3.0625 29.3125 5 29 C5.60417794 33.95425908 4.52225901 36.62913485 1.578125 40.453125 C-0.98350063 42.96402537 -3.62038907 43.87346302 -7 45 C-12.40461639 39.36800493 -14.03653733 33.98198384 -15.359375 26.3671875 C-15.91803641 22.995164 -15.91803641 22.995164 -17.08203125 19.8515625 C-18.4312215 15.66046086 -18.17131616 12.21673817 -17 8 C-13.02940019 0.91730844 -7.86876249 -1.93007382 0 0 Z " fill="#603825" transform="translate(37,10)"/>
<path d="M0 0 C13.53 0 27.06 0 41 0 C41 1.98 41 3.96 41 6 C38.44113496 7.32002556 35.87832932 8.63113782 33.3125 9.9375 C32.59126953 10.31068359 31.87003906 10.68386719 31.12695312 11.06835938 C23.67582962 14.84495622 23.67582962 14.84495622 20 15 C18.0078125 14.00390625 18.0078125 14.00390625 16.125 12.5625 C12.28151304 9.92010271 9.70808558 9.62335315 5 10 C3 9 3 9 2 6 C-0.00016466 4.79117904 -0.00016466 4.79117904 -2 4 C-1.34 2.68 -0.68 1.36 0 0 Z " fill="#CAC4B7" transform="translate(23,0)"/>
<path d="M0 0 C0.99 0.33 1.98 0.66 3 1 C2.67 2.98 2.34 4.96 2 7 C3.65 7.33 5.3 7.66 7 8 C7 8.99 7 9.98 7 11 C7.99 11.33 8.98 11.66 10 12 C11.74672985 15.4934597 13 18.06845568 13 22 C7.39 22 1.78 22 -4 22 C-7.375 14.125 -7.375 14.125 -7.1875 10.0625 C-7.16042969 9.29035156 -7.13335937 8.51820312 -7.10546875 7.72265625 C-7.07066406 7.15417969 -7.03585937 6.58570313 -7 6 C-6.34 5.67 -5.68 5.34 -5 5 C-4.67 5.99 -4.34 6.98 -4 8 C-3.71125 7.05125 -3.4225 6.1025 -3.125 5.125 C-2 2 -2 2 0 0 Z " fill="#F9F9FB" transform="translate(11,42)"/>
<path d="M0 0 C7.59 0 15.18 0 23 0 C22.01 1.98 21.02 3.96 20 6 C19.34 6 18.68 6 18 6 C17.67 6.99 17.34 7.98 17 9 C16.01 9 15.02 9 14 9 C14.33 9.66 14.66 10.32 15 11 C14.21625 11.28875 13.4325 11.5775 12.625 11.875 C9.90328368 12.84912254 9.90328368 12.84912254 8 15 C6.68 15 5.36 15 4 15 C4 15.66 4 16.32 4 17 C3.34 17 2.68 17 2 17 C2.33 17.99 2.66 18.98 3 20 C2.0625 23.1875 2.0625 23.1875 1 26 C0.67 26 0.34 26 0 26 C0 17.42 0 8.84 0 0 Z " fill="#BAB4A6" transform="translate(0,0)"/>
<path d="M0 0 C2.64 0.33 5.28 0.66 8 1 C7.67 2.98 7.34 4.96 7 7 C7.66 7 8.32 7 9 7 C9.66 5.68 10.32 4.36 11 3 C11 4.98 11 6.96 11 9 C11.66 9.33 12.32 9.66 13 10 C11.8553125 10.61875 11.8553125 10.61875 10.6875 11.25 C7.8679771 13.0859684 6.49900198 14.00199605 5 17 C4.4102416 21.99451643 4.70196094 25.53209936 7 30 C7 30.99 7 31.98 7 33 C4.69 33 2.38 33 0 33 C0 22.11 0 11.22 0 0 Z " fill="#D8D2CB" transform="translate(0,31)"/>
<path d="M0 0 C0.66 0 1.32 0 2 0 C2 0.99 2 1.98 2 3 C2.9075 3 3.815 3 4.75 3 C7.16666667 3 9.58333333 3 12 3 C11.34 7.62 10.68 12.24 10 17 C7.525 16.01 7.525 16.01 5 15 C4.67 16.32 4.34 17.64 4 19 C1.69 18.67 -0.62 18.34 -3 18 C-2.67 15.36 -2.34 12.72 -2 10 C-1.01 9.67 -0.02 9.34 1 9 C0.67 8.67 0.34 8.34 0 8 C-0.14115161 5.32941149 -0.04247107 2.67567762 0 0 Z " fill="#CCA695" transform="translate(33,25)"/>
<path d="M0 0 C0.66 0.66 1.32 1.32 2 2 C-0.31 2.33 -2.62 2.66 -5 3 C-5.99 5.64 -6.98 8.28 -8 11 C-7.01 11.99 -6.02 12.98 -5 14 C-5 14.99 -5 15.98 -5 17 C-5.66 17 -6.32 17 -7 17 C-7.33 16.34 -7.66 15.68 -8 15 C-11.54865136 14.91934883 -14.58389775 15.05685873 -18 16 C-17.46105672 10.43458567 -16.91241836 6.18943162 -12.5 2.4375 C-7.96270363 -0.95585936 -5.68982529 -1.11764425 0 0 Z " fill="#43291B" transform="translate(37,10)"/>
<path d="M0 0 C3.83473284 -0.35671933 5.55342875 -0.29771416 8.8125 1.875 C11.57848899 4.56196074 11.98498799 5.24939955 12.0625 9.125 C12.041875 10.07375 12.02125 11.0225 12 12 C9.72858891 11.88597936 7.45785448 11.75841495 5.1875 11.625 C3.92292969 11.55539063 2.65835938 11.48578125 1.35546875 11.4140625 C-2 11 -2 11 -5 9 C-4.34 8.67 -3.68 8.34 -3 8 C-2.09656316 6.11736119 -2.09656316 6.11736119 -1.375 3.9375 C-1.11460938 3.20402344 -0.85421875 2.47054688 -0.5859375 1.71484375 C-0.39257812 1.14894531 -0.19921875 0.58304688 0 0 Z " fill="#D6B29D" transform="translate(32,12)"/>
<path d="M0 0 C2.375 0.25 2.375 0.25 5 1 C5.28875 1.61875 5.5775 2.2375 5.875 2.875 C7.3562904 5.67299297 9.13186474 5.93485823 11.984375 7.01953125 C15.8503608 8.9000786 19.08295903 11.869517 22 15 C22.33 15.99 22.66 16.98 23 18 C18.71 18 14.42 18 10 18 C9.0234375 15.42838542 8.046875 12.85677083 7.0703125 10.28515625 C6.2180914 7.85058944 6.2180914 7.85058944 4 7 C4 6.01 4 5.02 4 4 C3.34 4 2.68 4 2 4 C2 3.34 2 2.68 2 2 C1.34 2 0.68 2 0 2 C0 1.34 0 0.68 0 0 Z " fill="#EAEBF1" transform="translate(14,46)"/>
<path d="M0 0 C0.99 0 1.98 0 3 0 C3.69918305 2.58067563 4.38461049 5.16372847 5.0625 7.75 C5.26166016 8.47960938 5.46082031 9.20921875 5.66601562 9.9609375 C6.63744407 13.71031044 7.15449387 16.30274238 6 20 C6 19.01 6 18.02 6 17 C3.36 16.67 0.72 16.34 -2 16 C-2 15.34 -2 14.68 -2 14 C-2.66 13.34 -3.32 12.68 -4 12 C-3.34 12 -2.68 12 -2 12 C-2 10.02 -2 8.04 -2 6 C-2.66 5.67 -3.32 5.34 -4 5 C-2.1875 2.5 -2.1875 2.5 0 0 Z " fill="#BDBBAB" transform="translate(17,27)"/>
<path d="M0 0 C5.61 0 11.22 0 17 0 C15.64758974 4.05723077 13.39073758 5.49085419 10 8 C9.01 8 8.02 8 7 8 C7 8.66 7 9.32 7 10 C5.0625 9.6875 5.0625 9.6875 3 9 C2.67 8.01 2.34 7.02 2 6 C-0.00016466 4.79117904 -0.00016466 4.79117904 -2 4 C-1.34 2.68 -0.68 1.36 0 0 Z " fill="#C4BDB1" transform="translate(23,0)"/>
<path d="M0 0 C1.98 0 3.96 0 6 0 C4.35 3.3 2.7 6.6 1 10 C1.66 10 2.32 10 3 10 C3.33 9.34 3.66 8.68 4 8 C4 8.66 4 9.32 4 10 C5.65 10.33 7.3 10.66 9 11 C9.33 10.34 9.66 9.68 10 9 C11.65 9.33 13.3 9.66 15 10 C14.401875 10.268125 13.80375 10.53625 13.1875 10.8125 C10.95745037 11.87102051 10.95745037 11.87102051 9.5 13.625 C8 15 8 15 4 15 C4 15.66 4 16.32 4 17 C3.34 17 2.68 17 2 17 C2.33 17.99 2.66 18.98 3 20 C2.0625 23.1875 2.0625 23.1875 1 26 C0.67 26 0.34 26 0 26 C0 17.42 0 8.84 0 0 Z " fill="#B4AFA1" transform="translate(0,0)"/>
<path d="M0 0 C2.64 0.33 5.28 0.66 8 1 C7.67 2.98 7.34 4.96 7 7 C7.66 7 8.32 7 9 7 C9.66 5.68 10.32 4.36 11 3 C11 4.98 11 6.96 11 9 C11.66 9.33 12.32 9.66 13 10 C12.195625 10.45375 11.39125 10.9075 10.5625 11.375 C7.91143428 12.74725665 7.91143428 12.74725665 7 15 C6.34 15 5.68 15 5 15 C5.01740234 13.93458984 5.01740234 13.93458984 5.03515625 12.84765625 C5.04417969 11.92855469 5.05320312 11.00945313 5.0625 10.0625 C5.07410156 9.14597656 5.08570313 8.22945312 5.09765625 7.28515625 C5.25949049 5.03406673 5.25949049 5.03406673 4 4 C3.34 7.63 2.68 11.26 2 15 C-0.35119399 11.47320901 -0.21443452 9.97120515 -0.125 5.8125 C-0.10695312 4.72582031 -0.08890625 3.63914063 -0.0703125 2.51953125 C-0.04710937 1.68808594 -0.02390625 0.85664063 0 0 Z " fill="#C0BAA9" transform="translate(0,31)"/>
<path d="M0 0 C0.60417794 4.95425908 -0.47774099 7.62913485 -3.421875 11.453125 C-5.98350063 13.96402537 -8.62038907 14.87346302 -12 16 C-12.99 14.35 -13.98 12.7 -15 11 C-14.28972656 10.78085937 -13.57945313 10.56171875 -12.84765625 10.3359375 C-10.08506175 9.38278428 -7.54934637 8.43319302 -5 7 C-3.69889182 3.88904363 -3.69889182 3.88904363 -4 1 C-1 0 -1 0 0 0 Z " fill="#9C654A" transform="translate(42,39)"/>
<path d="M0 0 C0.33 0.66 0.66 1.32 1 2 C1.99 2.33 2.98 2.66 4 3 C4.99 4.485 4.99 4.485 6 6 C7.95385067 6.78988145 7.95385067 6.78988145 10.125 7.1875 C12.043125 7.5896875 12.043125 7.5896875 14 8 C13.67 8.99 13.34 9.98 13 11 C9.7 11.66 6.4 12.32 3 13 C0.78145293 8.37802694 -0.38281159 5.23175837 0 0 Z " fill="#1C1210" transform="translate(23,37)"/>
<path d="M0 0 C0.66 0 1.32 0 2 0 C2 0.99 2 1.98 2 3 C4.64 3 7.28 3 10 3 C9.67 4.98 9.34 6.96 9 9 C8.01 9 7.02 9 6 9 C6 9.66 6 10.32 6 11 C4.02 11.33 2.04 11.66 0 12 C0.66 11.67 1.32 11.34 2 11 C2 10.34 2 9.68 2 9 C1.34 8.67 0.68 8.34 0 8 C0 5.36 0 2.72 0 0 Z " fill="#ECC7B4" transform="translate(33,25)"/>
<path d="M0 0 C0.60199219 0.1959375 1.20398438 0.391875 1.82421875 0.59375 C1.59605469 1.14804688 1.36789063 1.70234375 1.1328125 2.2734375 C0.84535156 2.99789063 0.55789062 3.72234375 0.26171875 4.46875 C-0.02832031 5.18804688 -0.31835938 5.90734375 -0.6171875 6.6484375 C-1.42949305 8.65024404 -1.42949305 8.65024404 -0.17578125 10.59375 C-2.15578125 10.59375 -4.13578125 10.59375 -6.17578125 10.59375 C-6.98828125 7.34375 -6.98828125 7.34375 -7.17578125 3.59375 C-3.4651331 -0.64699074 -3.4651331 -0.64699074 0 0 Z " fill="#80533B" transform="translate(30.17578125,12.40625)"/>
<path d="M0 0 C2.375 0.25 2.375 0.25 5 1 C5.28875 1.61875 5.5775 2.2375 5.875 2.875 C7.3562904 5.67299297 9.13186474 5.93485823 11.984375 7.01953125 C15.8503608 8.9000786 19.08295903 11.869517 22 15 C22.33 15.99 22.66 16.98 23 18 C19.83318564 16.59564774 17.6764524 14.89263856 15.1875 12.5 C11.53646421 9.20516283 8.80353935 7.90066363 4 7 C4 6.01 4 5.02 4 4 C3.34 4 2.68 4 2 4 C2 3.34 2 2.68 2 2 C1.34 2 0.68 2 0 2 C0 1.34 0 0.68 0 0 Z " fill="#A6A0B1" transform="translate(14,46)"/>
<path d="M0 0 C3.21020798 0.22930057 4.05574452 1.06193835 6.25 3.5 C8.52910161 8.05820322 8.30584189 10.95360877 8 16 C5.03 16.33 2.06 16.66 -1 17 C-0.34 16.34 0.32 15.68 1 15 C0.67 14.01 0.34 13.02 0 12 C3 11 3 11 6 12 C4.65226477 5.10740765 4.65226477 5.10740765 0 0 Z " fill="#AA927F" transform="translate(38,12)"/>
<path d="M0 0 C1.68550367 3.37100733 -0.31136964 6.72014632 -1.4375 10.125 C-1.68048828 10.87910156 -1.92347656 11.63320313 -2.17382812 12.41015625 C-2.77595819 14.27557879 -3.38713463 16.13807683 -4 18 C-4.99 18 -5.98 18 -7 18 C-6.02987071 10.93398364 -4.22263963 5.76986636 0 0 Z " fill="#D4D1DC" transform="translate(59,46)"/>
<path d="M0 0 C2.64 0.33 5.28 0.66 8 1 C7.67 1.66 7.34 2.32 7 3 C6.01 2.67 5.02 2.34 4 2 C3.34 6.29 2.68 10.58 2 15 C-0.35119399 11.47320901 -0.21443452 9.97120515 -0.125 5.8125 C-0.10695312 4.72582031 -0.08890625 3.63914063 -0.0703125 2.51953125 C-0.04710937 1.68808594 -0.02390625 0.85664063 0 0 Z " fill="#BEAF99" transform="translate(0,31)"/>
<path d="M0 0 C0.66 0 1.32 0 2 0 C2 1.32 2 2.64 2 4 C2.99 4 3.98 4 5 4 C5 5.65 5 7.3 5 9 C3.68 9.33 2.36 9.66 1 10 C0.67 8.68 0.34 7.36 0 6 C-0.33 6.66 -0.66 7.32 -1 8 C-1.66 8 -2.32 8 -3 8 C-2.25 2.25 -2.25 2.25 0 0 Z " fill="#948F7B" transform="translate(10,30)"/>
<path d="M0 0 C0.99 0.33 1.98 0.66 3 1 C4.37001429 4.1967 3.8252404 6.69903842 3 10 C1.68 10.33 0.36 10.66 -1 11 C-4 6.25 -4 6.25 -4 4 C-2.35 4 -0.7 4 1 4 C0.67 2.68 0.34 1.36 0 0 Z " fill="#C28B71" transform="translate(27,24)"/>
<path d="M0 0 C1.65 0.33 3.3 0.66 5 1 C5.33 3.64 5.66 6.28 6 9 C5.67 8.01 5.34 7.02 5 6 C2.36 5.67 -0.28 5.34 -3 5 C-3 4.34 -3 3.68 -3 3 C-2.34 3 -1.68 3 -1 3 C-0.67 2.01 -0.34 1.02 0 0 Z " fill="#DCD9E0" transform="translate(18,38)"/>
<path d="M0 0 C0.66 0.66 1.32 1.32 2 2 C1.67 2.66 1.34 3.32 1 4 C1.99 4.33 2.98 4.66 4 5 C2.68 5 1.36 5 0 5 C0 5.66 0 6.32 0 7 C4.65052872 7.26932521 4.65052872 7.26932521 9 6 C8.34 7.32 7.68 8.64 7 10 C4.03 9.01 1.06 8.02 -2 7 C-2.33 5.35 -2.66 3.7 -3 2 C-2.01 2 -1.02 2 0 2 C0 1.34 0 0.68 0 0 Z " fill="#6C4636" transform="translate(30,36)"/>
<path d="M0 0 C0.99 0 1.98 0 3 0 C2.49396008 2.16874252 2.00016187 3.99967627 1 6 C0.01 6 -0.98 6 -2 6 C-2.33 6.66 -2.66 7.32 -3 8 C-4.5625 6.75 -4.5625 6.75 -6 5 C-5.6875 2.8125 -5.6875 2.8125 -5 1 C-3.35 1.33 -1.7 1.66 0 2 C0 1.34 0 0.68 0 0 Z " fill="#5F3624" transform="translate(29,32)"/>
<path d="M0 0 C0.66 0 1.32 0 2 0 C1.773125 0.886875 1.54625 1.77375 1.3125 2.6875 C0.94548054 6.57790624 1.73118159 7.91440696 4 11 C1.03 10.67 -1.94 10.34 -5 10 C-4.34 9.34 -3.68 8.68 -3 8 C-2.11221308 6.03511169 -2.11221308 6.03511169 -1.375 3.875 C-1.11460938 3.15054687 -0.85421875 2.42609375 -0.5859375 1.6796875 C-0.29589844 0.84824219 -0.29589844 0.84824219 0 0 Z " fill="#D6A58D" transform="translate(32,12)"/>
<path d="M0 0 C1.32 0.33 2.64 0.66 4 1 C4 2.98 4 4.96 4 7 C0.7 6.67 -2.6 6.34 -6 6 C-6 5.67 -6 5.34 -6 5 C-4.35 4.67 -2.7 4.34 -1 4 C-0.67 2.68 -0.34 1.36 0 0 Z " fill="#E7C7B8" transform="translate(37,16)"/>
<path d="M0 0 C0.33 0 0.66 0 1 0 C1 2.97 1 5.94 1 9 C-0.98 9 -2.96 9 -5 9 C-4.42680151 5.13091017 -2.56186024 2.88209277 0 0 Z " fill="#E8E6F0" transform="translate(63,55)"/>
<path d="M0 0 C0.33 1.32 0.66 2.64 1 4 C3.64 4 6.28 4 9 4 C7.25 7.875 7.25 7.875 5 9 C4.67 8.01 4.34 7.02 4 6 C2.68 6 1.36 6 0 6 C-1.125 2.25 -1.125 2.25 0 0 Z " fill="#CFD1E0" transform="translate(40,46)"/>
<path d="M0 0 C1.98 0 3.96 0 6 0 C6.33 1.32 6.66 2.64 7 4 C3.94736336 4.98120464 2.05263664 4.98120464 -1 4 C-0.67 2.68 -0.34 1.36 0 0 Z " fill="#C4957F" transform="translate(31,39)"/>
<path d="M0 0 C1.16959987 0.97566112 2.33561177 1.955625 3.5 2.9375 C4.1496875 3.48277344 4.799375 4.02804688 5.46875 4.58984375 C5.9740625 5.05519531 6.479375 5.52054688 7 6 C7 6.33 7 6.66 7 7 C4.69 7 2.38 7 0 7 C0 4.69 0 2.38 0 0 Z " fill="#F3F3F8" transform="translate(28,57)"/>
<path d="M0 0 C0 1.98 0 3.96 0 6 C-0.66 6 -1.32 6 -2 6 C-3.6446674 8.46326712 -3.6446674 8.46326712 -5 11 C-6.21994269 7.34017193 -5.49026663 6.41884698 -4 3 C-4 2.34 -4 1.68 -4 1 C-1 0 -1 0 0 0 Z " fill="#9B7B6D" transform="translate(42,39)"/>
<path d="M0 0 C1.32 0.33 2.64 0.66 4 1 C3.67 2.32 3.34 3.64 3 5 C3.66 5 4.32 5 5 5 C5 5.99 5 6.98 5 8 C4.01 8 3.02 8 2 8 C1.67 8.99 1.34 9.98 1 11 C1.03255208 9.01432292 1.06510417 7.02864583 1.09765625 5.04296875 C1.08263217 2.79694539 1.08263217 2.79694539 0 0 Z " fill="#CAC1AE" transform="translate(4,33)"/>
<path d="M0 0 C0.66 0.66 1.32 1.32 2 2 C0.54207116 2.05399736 -0.91642712 2.09279177 -2.375 2.125 C-3.18710937 2.14820313 -3.99921875 2.17140625 -4.8359375 2.1953125 C-7 2 -7 2 -9 0 C-5.88135455 -1.55932272 -3.33704665 -0.65549131 0 0 Z " fill="#494237" transform="translate(37,10)"/>
<path d="M0 0 C0.66 1.32 1.32 2.64 2 4 C2.37125 4.680625 2.7425 5.36125 3.125 6.0625 C4 8 4 8 4 11 C3.01 11 2.02 11 1 11 C0.67 7.37 0.34 3.74 0 0 Z " fill="#BAB9C4" transform="translate(3,53)"/>
<path d="M0 0 C0.66 0.33 1.32 0.66 2 1 C1.67 4.63 1.34 8.26 1 12 C0.67 12 0.34 12 0 12 C-2.21538462 4.61538462 -2.21538462 4.61538462 -1.125 1.5 C-0.75375 1.005 -0.3825 0.51 0 0 Z " fill="#77513E" transform="translate(22,27)"/>
<path d="M0 0 C0.99 0.33 1.98 0.66 3 1 C2.88637738 2.4800841 2.75877092 3.95910074 2.625 5.4375 C2.52058594 6.67306641 2.52058594 6.67306641 2.4140625 7.93359375 C2.27742187 8.61550781 2.14078125 9.29742187 2 10 C1.01 10.495 1.01 10.495 0 11 C0 7.37 0 3.74 0 0 Z " fill="#BBB4A7" transform="translate(0,15)"/>
<path d="M0 0 C2.9375 0.8125 2.9375 0.8125 6 2 C6.33 2.99 6.66 3.98 7 5 C4.36 4.67 1.72 4.34 -1 4 C-0.67 2.68 -0.34 1.36 0 0 Z " fill="#D1D2CB" transform="translate(2,6)"/>
<path d="M0 0 C0.33 0.66 0.66 1.32 1 2 C-0.75 4.0625 -0.75 4.0625 -3 6 C-5.25 5.75 -5.25 5.75 -7 5 C-4.702779 3.25728062 -2.40133271 1.60088848 0 0 Z " fill="#DADAE2" transform="translate(38,50)"/>
<path d="M0 0 C2 2 2 2 2.1953125 4.6015625 C2.17210937 5.59929688 2.14890625 6.59703125 2.125 7.625 C2.10695313 8.62789062 2.08890625 9.63078125 2.0703125 10.6640625 C2.03550781 11.82035156 2.03550781 11.82035156 2 13 C1.01 13.495 1.01 13.495 0 14 C-0.19393875 11.85473901 -0.37998676 9.70876323 -0.5625 7.5625 C-0.71912109 5.77005859 -0.71912109 5.77005859 -0.87890625 3.94140625 C-0.91886719 2.97074219 -0.95882813 2.00007813 -1 1 C-0.67 0.67 -0.34 0.34 0 0 Z " fill="#D3C7B3" transform="translate(4,34)"/>
<path d="M0 0 C0.99 0.66 1.98 1.32 3 2 C2.34 3.32 1.68 4.64 1 6 C-0.32 5.67 -1.64 5.34 -3 5 C-2.34 4.67 -1.68 4.34 -1 4 C-1.33 3.01 -1.66 2.02 -2 1 C-1.34 0.67 -0.68 0.34 0 0 Z " fill="#B78B76" transform="translate(40,23)"/>
<path d="M0 0 C1.32 0.33 2.64 0.66 4 1 C2.515 4.96 2.515 4.96 1 9 C0.17189174 5.68756695 -0.09278428 3.34023421 0 0 Z " fill="#B07B60" transform="translate(28,12)"/>
<path d="M0 0 C-1.36983503 3.16115776 -1.9890638 3.9927092 -5 6 C-5.33 4.35 -5.66 2.7 -6 1 C-4 0 -4 0 0 0 Z " fill="#E8E8EE" transform="translate(57,43)"/>
<path d="M0 0 C2.475 0.99 2.475 0.99 5 2 C5 2.99 5 3.98 5 5 C3.02 4.34 1.04 3.68 -1 3 C-0.67 2.01 -0.34 1.02 0 0 Z " fill="#FCFCFD" transform="translate(16,43)"/>
<path d="M0 0 C0.66 0 1.32 0 2 0 C2.6875 2.8125 2.6875 2.8125 3 6 C1.5625 7.875 1.5625 7.875 0 9 C0 7.02 0 5.04 0 3 C-0.66 2.67 -1.32 2.34 -2 2 C-1.34 1.34 -0.68 0.68 0 0 Z " fill="#98644A" transform="translate(26,13)"/>
<path d="M0 0 C1.15227823 0.76116551 2.2966386 1.53432693 3.4375 2.3125 C4.07558594 2.74175781 4.71367188 3.17101563 5.37109375 3.61328125 C7 5 7 5 8 8 C4.63820226 6.55922954 2.40843732 4.75249979 0 2 C0 1.34 0 0.68 0 0 Z " fill="#C2C3D0" transform="translate(29,56)"/>
<path d="M0 0 C0.66 0 1.32 0 2 0 C2.33 2.64 2.66 5.28 3 8 C2.67 7.01 2.34 6.02 2 5 C1.01 5 0.02 5 -1 5 C-0.67 3.35 -0.34 1.7 0 0 Z " fill="#AFA7B0" transform="translate(21,39)"/>
<path d="M0 0 C0.33 0 0.66 0 1 0 C1.36923077 4.55384615 1.36923077 4.55384615 -0.5 6.8125 C-0.995 7.204375 -1.49 7.59625 -2 8 C-2 7.34 -2 6.68 -2 6 C-2.66 5.67 -3.32 5.34 -4 5 C-2.69254251 3.31295807 -1.35827971 1.64639965 0 0 Z " fill="#B5B09B" transform="translate(17,27)"/>
<path d="M0 0 C0.66 0 1.32 0 2 0 C1 4 1 4 0 8 C-0.66 8 -1.32 8 -2 8 C-1.125 1.125 -1.125 1.125 0 0 Z " fill="#C6957E" transform="translate(32,12)"/>
<path d="M0 0 C2.97 0.495 2.97 0.495 6 1 C5.401875 1.28875 4.80375 1.5775 4.1875 1.875 C1.80672208 3.04742026 1.80672208 3.04742026 -1 5 C-1.99 4.01 -2.98 3.02 -4 2 C-2.68 2 -1.36 2 0 2 C0 1.34 0 0.68 0 0 Z " fill="#AFAA9A" transform="translate(9,9)"/>
<path d="M0 0 C2.12508244 3.18762365 2.5020163 5.26512223 3 9 C2.01 9 1.02 9 0 9 C0 6.03 0 3.06 0 0 Z " fill="#EBEBF2" transform="translate(13,55)"/>
<path d="M0 0 C2.475 0.99 2.475 0.99 5 2 C4.67 2.99 4.34 3.98 4 5 C2.68 4.67 1.36 4.34 0 4 C0 2.68 0 1.36 0 0 Z " fill="#E1AE93" transform="translate(33,29)"/>
</svg>
